<svg width="24.000000" height="24.000000" viewBox="0 0 24 24" fill="none" xmlns="http://www.w3.org/2000/svg" xmlns:xlink="http://www.w3.org/1999/xlink">
	<desc>
			Created with Pixso.
	</desc>
	<defs>
		<clipPath id="clip1233_8656">
			<rect id="carbon:user-avatar" width="24.000000" height="24.000000" fill="white" fill-opacity="0"/>
		</clipPath>
	</defs>
	<rect id="carbon:user-avatar" width="24.000000" height="24.000000" fill="#FFFFFF" fill-opacity="0"/>
	<g clip-path="url(#clip1233_8656)">
		<path id="Vector" d="M12 6C11.25 6 10.53 6.21 9.91 6.63C9.3 7.04 8.81 7.62 8.53 8.31C8.25 9 8.17 9.75 8.32 10.48C8.46 11.2 8.82 11.87 9.34 12.4C9.87 12.92 10.54 13.28 11.26 13.42C11.99 13.57 12.74 13.49 13.43 13.21C14.12 12.93 14.7 12.45 15.11 11.83C15.53 11.21 15.75 10.49 15.75 9.75C15.75 8.75 15.35 7.8 14.65 7.09C13.94 6.39 12.99 6 12 6ZM12 12C11.55 12 11.11 11.86 10.75 11.62C10.37 11.37 10.09 11.02 9.92 10.61C9.75 10.19 9.7 9.74 9.79 9.31C9.88 8.87 10.09 8.47 10.4 8.15C10.72 7.84 11.12 7.63 11.56 7.54C11.99 7.45 12.45 7.5 12.86 7.67C13.27 7.84 13.62 8.12 13.87 8.49C14.11 8.86 14.25 9.3 14.25 9.75C14.24 10.34 14.01 10.91 13.59 11.34C13.16 11.76 12.59 11.99 12 12Z" fill="#FFFFFF" fill-opacity="1.000000" fill-rule="nonzero"/>
		<path id="Vector" d="M12 1.5C9.92 1.5 7.89 2.11 6.16 3.26C4.43 4.42 3.09 6.06 2.29 7.98C1.5 9.9 1.29 12.01 1.7 14.04C2.1 16.08 3.1 17.95 4.57 19.42C6.04 20.89 7.91 21.89 9.95 22.29C11.98 22.7 14.09 22.49 16.01 21.7C17.93 20.9 19.57 19.56 20.73 17.83C21.88 16.1 22.5 14.07 22.5 12C22.49 9.21 21.38 6.54 19.42 4.57C17.45 2.61 14.78 1.5 12 1.5ZM7.5 19.78L7.5 18.75C7.5 18.15 7.73 17.58 8.15 17.15C8.58 16.73 9.15 16.5 9.75 16.5L14.25 16.5C14.84 16.5 15.41 16.73 15.84 17.15C16.26 17.58 16.49 18.15 16.5 18.75L16.5 19.78C15.13 20.58 13.58 21 12 21C10.41 21 8.86 20.58 7.5 19.78ZM17.99 18.69C17.97 17.71 17.57 16.77 16.87 16.08C16.17 15.39 15.23 15 14.25 15L9.75 15C8.76 15 7.82 15.39 7.12 16.08C6.42 16.77 6.02 17.71 6 18.69C4.64 17.48 3.68 15.88 3.25 14.1C2.82 12.33 2.94 10.47 3.59 8.77C4.24 7.06 5.39 5.6 6.89 4.56C8.39 3.53 10.17 2.98 12 2.98C13.82 2.98 15.6 3.53 17.1 4.56C18.6 5.6 19.75 7.06 20.4 8.77C21.05 10.47 21.17 12.33 20.74 14.1C20.31 15.88 19.35 17.48 17.99 18.69L17.99 18.69Z" fill="#FFFFFF" fill-opacity="1.000000" fill-rule="nonzero"/>
	</g>
</svg>
