<svg width="40.000000" height="40.000000" viewBox="0 0 40 40" fill="none" xmlns="http://www.w3.org/2000/svg" xmlns:xlink="http://www.w3.org/1999/xlink">
	<desc>
			Created with Pixso.
	</desc>
	<defs/>
	<circle id="Ellipse" cx="20.000000" cy="20.000000" r="19.500000" stroke="#363636" stroke-opacity="1.000000" stroke-width="1.000000"/>
	<path id="Vector" d="M29 13.81C29 12.32 27.67 11 26.18 11L14.81 11C13.32 11 12 12.32 12 13.81L12 25.18C12 26.67 13.32 28 14.81 28L20.54 28L20.54 21.56L18.43 21.56L18.43 18.75L20.54 18.75L20.54 17.6C20.54 15.66 21.95 13.99 23.71 13.99L26 13.99L26 16.81L23.71 16.81C23.45 16.81 23.18 17.07 23.18 17.6L23.18 18.75L26 18.75L26 21.56L23.18 21.56L23.18 28L26.18 28C27.67 28 29 26.67 29 25.18L29 13.81Z" fill="#FFFFFF" fill-opacity="1.000000" fill-rule="nonzero"/>
</svg>
