<svg width="96.000000" height="51.246338" viewBox="0 0 96 51.2463" fill="none" xmlns="http://www.w3.org/2000/svg" xmlns:xlink="http://www.w3.org/1999/xlink">
	<desc>
			Created with Pixso.
	</desc>
	<defs/>
	<path id="Vector" d="M52.6 49.79C58.99 52.79 67.8 50.73 75.3 47.33C82.29 44.14 90.23 38.82 94.28 32.09C96.85 27.81 96.28 23.22 94.26 19.18L86.52 19.18C81.74 19.18 79.34 21.58 79.34 26.37L79.34 37.65L76.27 37.65L76.27 26.37C76.27 19.52 79.68 16.11 86.52 16.11L92.38 16.11C91.85 15.36 91.27 14.65 90.66 13.98C88.88 11.99 86.19 10.12 83.86 8.34C81.62 6.62 79.19 5.27 75.96 3.76C70.39 1.16 61.55 -1.21 55.18 0.68C51.43 1.79 49.94 3.58 48.22 6.26C47.85 6.26 45.7 10.69 44.94 15.44C43.57 24.05 43.22 45.37 52.6 49.79ZM70.11 37.65L70.11 24.56L67.03 25.28L67.03 30.47C67.03 35.25 64.63 37.65 59.84 37.65L52.66 37.65C47.87 37.65 45.48 35.6 45.48 31.49C45.48 28.51 46.52 26.8 48.6 26.37L51.26 25.76L63.93 22.86C63.8 20.41 62.44 19.18 59.84 19.18L52.66 19.18C49.92 19.18 48.56 20.55 48.56 23.28L45.48 23.28C45.48 18.5 47.87 16.1 52.66 16.1L59.84 16.1C64.24 16.1 66.62 18.13 66.98 22.16L73.19 20.74L73.19 37.65L70.11 37.65ZM13.35 16.86C17.75 18.02 20.74 21.79 20.74 26.74C20.74 32.73 16.36 37.03 10.39 37.03C4.41 37.03 0 32.73 0 26.74C0 22.24 2.48 18.72 6.25 17.24L6.25 20C4.13 21.32 2.79 23.7 2.79 26.74C2.79 31.46 6.05 34.61 10.39 34.61C14.73 34.61 17.95 31.46 17.95 26.74C17.95 23.17 16.11 20.51 13.35 19.41L13.35 16.86ZM34.04 16.49C30.51 16.49 27.76 17.91 26.28 20.36L26.28 16.64L23.65 16.64L23.65 36.84L26.4 36.84L26.4 26.24C26.4 21.63 29.16 18.94 33.53 18.94C37.41 18.94 39.66 21.13 39.66 25.39L39.66 36.84L42.42 36.84L42.42 25.12C42.42 19.33 39.01 16.49 34.04 16.49ZM59.84 34.57C62.58 34.57 63.95 33.2 63.95 30.47L63.95 26.06L49.4 29.4C48.84 29.59 48.56 29.94 48.56 30.47C48.56 33.2 49.92 34.57 52.66 34.57L59.84 34.57ZM11.56 14.17C11.56 13.7 11.37 13.25 11.04 12.91C10.71 12.58 10.26 12.39 9.79 12.39L9.78 12.39C9.32 12.39 8.86 12.58 8.53 12.91C8.2 13.25 8.01 13.7 8.01 14.17L8.01 25.78C8.01 26.25 8.2 26.7 8.53 27.03C8.86 27.36 9.32 27.55 9.78 27.55L9.79 27.55C10.26 27.55 10.71 27.36 11.04 27.03C11.37 26.7 11.56 26.25 11.56 25.78L11.56 14.17ZM71.64 17.65C70.28 17.65 69.59 16.96 69.59 15.59C69.59 14.22 70.28 13.54 71.64 13.54C73.02 13.54 73.69 14.22 73.69 15.59C73.69 16.96 73.02 17.65 71.64 17.65Z" fill="#FFFFFF" fill-opacity="1.000000" fill-rule="evenodd"/>
</svg>
