<svg width="95.985352" height="51.015892" viewBox="0 0 95.9854 51.0159" fill="none" xmlns="http://www.w3.org/2000/svg" xmlns:xlink="http://www.w3.org/1999/xlink">

	<defs>
		<linearGradient x1="93.472649" y1="72.738976" x2="67.909447" y2="8.383507" id="paint_linear_2_2056_0" gradientUnits="userSpaceOnUse">
			<stop stop-color="#8E04B7"/>
			<stop offset="1.000000" stop-color="#E13C52"/>
		</linearGradient>
	</defs>
	<path id="Vector" d="M52.78 49.56C59.14 52.56 67.91 50.51 75.38 47.11C82.34 43.95 90.25 38.65 94.27 31.94C96.83 27.69 96.26 23.12 94.25 19.09L86.55 19.09C81.79 19.09 79.4 21.48 79.4 26.25L79.4 37.48L76.34 37.48L76.34 26.25C76.34 19.44 79.74 16.03 86.55 16.03L92.38 16.03C91.85 15.29 91.27 14.58 90.67 13.92C88.9 11.94 86.21 10.07 83.9 8.3C81.67 6.59 79.25 5.25 76.04 3.74C70.49 1.15 61.69 -1.21 55.35 0.67C51.62 1.78 50.14 3.56 48.42 6.23C48.06 6.23 45.91 10.64 45.16 15.37C43.79 23.94 43.44 45.16 52.78 49.56ZM71.74 17.57C70.38 17.57 69.7 16.88 69.7 15.52C69.7 14.16 70.38 13.48 71.74 13.48C73.11 13.48 73.78 14.16 73.78 15.52C73.78 16.88 73.11 17.57 71.74 17.57ZM70.21 37.48L70.21 24.45L67.14 25.17L67.14 30.33C67.14 35.1 64.76 37.48 59.99 37.48L52.84 37.48C48.07 37.48 45.7 35.44 45.7 31.35C45.7 28.38 46.73 26.68 48.8 26.25L51.45 25.64L64.05 22.76C63.93 20.32 62.57 19.09 59.99 19.09L52.84 19.09C50.12 19.09 48.76 20.46 48.76 23.18L45.7 23.18C45.7 18.42 48.07 16.03 52.84 16.03L59.99 16.03C64.37 16.03 66.74 18.04 67.1 22.06L73.27 20.65L73.27 37.48L70.21 37.48ZM59.99 34.41C62.72 34.41 64.08 33.05 64.08 30.33L64.08 25.94L49.59 29.27C49.04 29.46 48.76 29.81 48.76 30.33C48.76 33.05 50.12 34.41 52.84 34.41L59.99 34.41Z" fill="url(#paint_linear_2_2056_0)" fill-opacity="1.000000" fill-rule="evenodd"/>
	<path id="Vector" d="M13.35 16.76C17.75 17.93 20.74 21.69 20.74 26.64C20.74 32.63 16.36 36.93 10.39 36.93C4.41 36.93 0 32.63 0 26.64C0 22.15 2.48 18.62 6.25 17.14L6.25 19.9C4.13 21.22 2.79 23.6 2.79 26.64C2.79 31.36 6.05 34.51 10.39 34.51C14.73 34.51 17.95 31.36 17.95 26.64C17.95 23.08 16.11 20.41 13.35 19.31L13.35 16.76ZM34.04 16.39C30.51 16.39 27.76 17.81 26.28 20.27L26.28 16.54L23.65 16.54L23.65 36.74L26.4 36.74L26.4 26.14C26.4 21.53 29.16 18.84 33.53 18.84C37.41 18.84 39.66 21.03 39.66 25.3L39.66 36.74L42.42 36.74L42.42 25.03C42.42 19.23 39.01 16.39 34.04 16.39ZM11.56 14.07C11.56 13.6 11.37 13.15 11.04 12.81C10.71 12.48 10.26 12.29 9.79 12.29L9.78 12.29C9.32 12.29 8.86 12.48 8.53 12.81C8.2 13.15 8.01 13.6 8.01 14.07L8.01 25.68C8.01 26.15 8.2 26.6 8.53 26.93C8.86 27.27 9.32 27.45 9.78 27.45L9.79 27.45C10.26 27.45 10.71 27.27 11.04 26.93C11.37 26.6 11.56 26.15 11.56 25.68L11.56 14.07Z" fill="#FFFFFF" fill-opacity="1.000000" fill-rule="evenodd"/>
</svg>
