<svg width="105.433594" height="26.168213" viewBox="0 0 105.434 26.1682" fill="none" xmlns="http://www.w3.org/2000/svg" xmlns:xlink="http://www.w3.org/1999/xlink">
	<desc>
			Created with Pixso.
	</desc>
	<defs/>
	<path id="XMLID 30" d="M40.15 11.21C39.88 13.29 38.24 13.29 36.74 13.29L35.92 13.29L36.6 9.27C36.6 8.99 36.87 8.86 37.15 8.86L37.55 8.86C38.65 8.86 39.6 8.86 40.15 9.41C40.15 9.96 40.15 10.52 40.15 11.21ZM39.47 5.67L33.59 5.67C33.18 5.67 32.91 5.95 32.77 6.36L30.45 21.59C30.45 21.87 30.59 22.15 31 22.15L33.73 22.15C34.14 22.15 34.41 21.87 34.55 21.46L35.23 17.3C35.23 16.89 35.64 16.61 36.05 16.61L37.96 16.61C41.79 16.61 43.97 14.67 44.66 10.93C44.93 9.27 44.66 8.03 43.97 7.06C42.88 6.23 41.38 5.67 39.47 5.67Z" fill="#263577" fill-opacity="1.000000" fill-rule="nonzero"/>
	<path id="XMLID 27" d="M52.99 16.75C52.71 18.41 51.48 19.52 49.84 19.52C49.03 19.52 48.34 19.24 47.93 18.69C47.52 18.13 47.39 17.44 47.52 16.75C47.8 15.09 49.03 13.98 50.66 13.98C51.48 13.98 52.17 14.26 52.58 14.81C52.85 15.23 53.12 15.92 52.99 16.75ZM56.81 11.21L54.08 11.21C53.81 11.21 53.67 11.35 53.53 11.63L53.4 12.46L53.26 12.18C52.71 11.35 51.35 10.93 49.98 10.93C46.84 10.93 44.25 13.29 43.7 16.61C43.43 18.27 43.84 19.79 44.79 20.9C45.61 21.87 46.84 22.29 48.34 22.29C50.8 22.29 52.17 20.62 52.17 20.62L52.03 21.46C52.03 21.73 52.17 22.01 52.58 22.01L55.04 22.01C55.44 22.01 55.72 21.73 55.85 21.32L57.36 11.63C57.36 11.49 57.22 11.21 56.81 11.21Z" fill="#263577" fill-opacity="1.000000" fill-rule="nonzero"/>
	<path id="XMLID 26" d="M71.69 11.21L68.83 11.21C68.55 11.21 68.28 11.35 68.14 11.63L64.32 17.44L62.68 11.9C62.54 11.49 62.27 11.35 61.86 11.35L59.13 11.35C58.86 11.35 58.58 11.63 58.72 12.04L61.86 21.18L58.99 25.33C58.72 25.61 58.99 26.16 59.4 26.16L62.27 26.16C62.54 26.16 62.82 26.02 62.95 25.75L72.24 12.04C72.38 11.63 72.1 11.21 71.69 11.21Z" fill="#263577" fill-opacity="1.000000" fill-rule="nonzero"/>
	<path id="XMLID 21" d="M81.66 11.21C81.39 13.29 79.75 13.29 78.25 13.29L77.43 13.29L78.11 9.27C78.11 8.99 78.39 8.86 78.66 8.86L79.07 8.86C80.16 8.86 81.12 8.86 81.66 9.41C81.8 9.96 81.8 10.52 81.66 11.21ZM80.98 5.67L75.11 5.67C74.7 5.67 74.42 5.95 74.29 6.36L71.97 21.59C71.97 21.87 72.1 22.15 72.51 22.15L75.52 22.15C75.79 22.15 76.06 22.01 76.06 21.59L76.75 17.3C76.75 16.89 77.16 16.61 77.57 16.61L79.48 16.61C83.3 16.61 85.49 14.67 86.17 10.93C86.44 9.27 86.17 8.03 85.49 7.06C84.53 6.23 83.03 5.67 80.98 5.67Z" fill="#2199D6" fill-opacity="1.000000" fill-rule="nonzero"/>
	<path id="XMLID 13" d="M94.64 16.75C94.37 18.41 93.14 19.52 91.5 19.52C90.68 19.52 90 19.24 89.59 18.69C89.18 18.13 89.04 17.44 89.18 16.75C89.45 15.09 90.68 13.98 92.32 13.98C93.14 13.98 93.82 14.26 94.23 14.81C94.51 15.23 94.78 15.92 94.64 16.75ZM98.47 11.21L95.74 11.21C95.46 11.21 95.33 11.35 95.19 11.63L95.05 12.46L94.92 12.18C94.37 11.35 93 10.93 91.64 10.93C88.5 10.93 85.9 13.29 85.36 16.61C85.08 18.27 85.49 19.79 86.45 20.9C87.27 21.87 88.5 22.29 90 22.29C92.46 22.29 93.82 20.62 93.82 20.62L93.69 21.46C93.69 21.73 93.82 22.01 94.23 22.01L96.69 22.01C97.1 22.01 97.37 21.73 97.51 21.32L99.01 11.63C99.01 11.49 98.74 11.21 98.47 11.21Z" fill="#2199D6" fill-opacity="1.000000" fill-rule="nonzero"/>
	<path id="XMLID 12" d="M101.74 6.09L99.28 21.59C99.28 21.87 99.42 22.15 99.83 22.15L102.29 22.15C102.7 22.15 102.97 21.87 103.11 21.46L105.43 6.23C105.43 5.95 105.29 5.67 104.88 5.67L102.15 5.67C102.02 5.67 101.88 5.95 101.74 6.09Z" fill="#2199D6" fill-opacity="1.000000" fill-rule="nonzero"/>
	<path id="XMLID 10" d="M6.14 25.06L6.55 22.15L5.59 22.15L0.81 22.15L4.09 0.96C4.09 0.96 4.09 0.83 4.23 0.83L4.36 0.83L12.42 0.83C15.02 0.83 16.93 1.38 17.88 2.49C18.29 3.04 18.57 3.59 18.7 4.15C18.84 4.84 18.84 5.53 18.7 6.5L18.7 7.06L19.11 7.33C19.52 7.47 19.8 7.75 20.07 8.03C20.48 8.44 20.75 8.99 20.75 9.69C20.89 10.38 20.89 11.21 20.62 12.18C20.34 13.29 20.07 14.12 19.66 14.95C19.25 15.64 18.7 16.19 18.16 16.75C17.61 17.16 16.79 17.44 16.11 17.72C15.29 17.86 14.47 17.99 13.51 17.99L12.83 17.99C12.42 17.99 12.01 18.13 11.6 18.41C11.33 18.69 11.06 19.1 10.92 19.52L10.92 19.79L10.1 24.92L10.1 25.06L10.1 25.19C10.1 25.19 10.1 25.19 9.96 25.19L6.14 25.19L6.14 25.06Z" fill="#263577" fill-opacity="1.000000" fill-rule="nonzero"/>
	<path id="XMLID 8" d="M19.66 6.5C19.66 6.64 19.66 6.78 19.53 6.92C18.43 12.46 14.88 14.26 10.24 14.26L7.92 14.26C7.37 14.26 6.82 14.67 6.82 15.23L5.6 22.98L5.32 25.19C5.32 25.61 5.6 25.89 5.87 25.89L10.1 25.89C10.65 25.89 11.06 25.47 11.06 25.06L11.06 24.78L11.88 19.79L11.88 19.52C12.01 18.96 12.42 18.69 12.83 18.69L13.52 18.69C17.61 18.69 20.75 17.03 21.57 12.18C21.98 10.1 21.71 8.44 20.75 7.33C20.48 7.06 20.07 6.78 19.66 6.5Z" fill="#2199D6" fill-opacity="1.000000" fill-rule="nonzero"/>
	<path id="XMLID 6" d="M18.57 6.09C18.43 6.09 18.29 5.95 18.02 5.95C17.88 5.95 17.61 5.81 17.47 5.81C16.79 5.67 16.11 5.67 15.43 5.67L9.14 5.67C9.01 5.67 8.87 5.67 8.73 5.81C8.46 5.95 8.19 6.23 8.19 6.5L6.82 15.09L6.82 15.36C6.96 14.81 7.37 14.39 7.91 14.39L10.24 14.39C14.88 14.39 18.43 12.46 19.52 7.06C19.52 6.92 19.52 6.78 19.66 6.64C19.39 6.5 19.11 6.36 18.84 6.23C18.7 6.09 18.57 6.09 18.57 6.09Z" fill="#252C5E" fill-opacity="1.000000" fill-rule="nonzero"/>
	<path id="XMLID 5" d="M8.19 6.5C8.19 6.23 8.46 5.95 8.74 5.81C8.87 5.81 9.01 5.67 9.15 5.67L15.43 5.67C16.11 5.67 16.93 5.67 17.48 5.81C17.61 5.81 17.89 5.81 18.02 5.95C18.16 5.95 18.3 6.09 18.57 6.09C18.71 6.09 18.71 6.09 18.84 6.23C19.12 6.36 19.39 6.5 19.66 6.64C19.93 4.56 19.66 3.18 18.57 1.93C17.34 0.55 15.15 0 12.42 0L4.37 0C3.82 0 3.27 0.41 3.27 0.96L0 22.29C0 22.7 0.27 23.12 0.68 23.12L5.59 23.12L6.82 15.09L8.19 6.5Z" fill="#263577" fill-opacity="1.000000" fill-rule="nonzero"/>
</svg>
