<svg width="130.000000" height="37.607178" viewBox="0 0 130 37.6072" fill="none" xmlns="http://www.w3.org/2000/svg" xmlns:xlink="http://www.w3.org/1999/xlink">
	<desc>
			Created with Pixso.
	</desc>
	<defs>
		<linearGradient x1="20.992397" y1="29.418581" x2="4.831580" y2="13.640078" id="paint_linear_96_2570_0" gradientUnits="userSpaceOnUse">
			<stop stop-color="#00A0FF"/>
			<stop offset="0.006600" stop-color="#00A1FF"/>
			<stop offset="0.260100" stop-color="#00BEFF"/>
			<stop offset="0.512200" stop-color="#00D2FF"/>
			<stop offset="0.760400" stop-color="#00DFFF"/>
			<stop offset="1.000000" stop-color="#00E3FF"/>
		</linearGradient>
		<linearGradient x1="32.581177" y1="18.802256" x2="9.280462" y2="18.802256" id="paint_linear_96_2572_0" gradientUnits="userSpaceOnUse">
			<stop stop-color="#FFE000"/>
			<stop offset="0.408700" stop-color="#FFBD00"/>
			<stop offset="0.775400" stop-color="#FFA500"/>
			<stop offset="1.000000" stop-color="#FF9C00"/>
		</linearGradient>
		<linearGradient x1="23.907299" y1="16.645081" x2="1.991911" y2="-4.751846" id="paint_linear_96_2574_0" gradientUnits="userSpaceOnUse">
			<stop stop-color="#FF3A44"/>
			<stop offset="1.000000" stop-color="#C31162"/>
		</linearGradient>
		<linearGradient x1="7.026845" y1="37.441681" x2="16.813057" y2="27.887083" id="paint_linear_96_2576_0" gradientUnits="userSpaceOnUse">
			<stop stop-color="#32A071"/>
			<stop offset="0.068500" stop-color="#2DA771"/>
			<stop offset="0.476200" stop-color="#15CF74"/>
			<stop offset="0.800900" stop-color="#06E775"/>
			<stop offset="1.000000" stop-color="#00F076"/>
		</linearGradient>
	</defs>
	<path id="path14" d="M125.18 37.6L4.81 37.6C2.16 37.6 0 35.49 0 32.9L0 4.7C0 2.11 2.16 0 4.81 0L125.18 0C127.83 0 130 2.11 130 4.7L130 32.9C130 35.49 127.83 37.6 125.18 37.6Z" fill="#000000" fill-opacity="1.000000" fill-rule="nonzero"/>
	<path id="path16" d="M125.18 0.75C127.41 0.75 129.22 2.52 129.22 4.7L129.22 32.9C129.22 35.08 127.41 36.85 125.18 36.85L4.81 36.85C2.58 36.85 0.77 35.08 0.77 32.9L0.77 4.7C0.77 2.52 2.58 0.75 4.81 0.75L125.18 0.75ZM125.18 0L4.81 0C2.16 0 0 2.11 0 4.7L0 32.9C0 35.49 2.16 37.6 4.81 37.6L125.18 37.6C127.83 37.6 130 35.49 130 32.9L130 4.7C130 2.11 127.83 0 125.18 0Z" fill="#A6A6A6" fill-opacity="1.000000" fill-rule="nonzero"/>
	<path id="path20" d="M45.66 9.63C45.66 10.41 45.42 11.04 44.94 11.51C44.4 12.06 43.69 12.34 42.82 12.34C41.98 12.34 41.27 12.06 40.69 11.5C40.11 10.93 39.82 10.23 39.82 9.4C39.82 8.56 40.11 7.86 40.69 7.3C41.27 6.73 41.98 6.45 42.82 6.45C43.23 6.45 43.62 6.53 44 6.69C44.38 6.84 44.68 7.06 44.9 7.32L44.4 7.81C44.01 7.37 43.49 7.15 42.82 7.15C42.21 7.15 41.68 7.35 41.24 7.77C40.79 8.19 40.57 8.73 40.57 9.4C40.57 10.06 40.79 10.61 41.24 11.03C41.68 11.44 42.21 11.65 42.82 11.65C43.46 11.65 44 11.44 44.43 11.02C44.71 10.75 44.87 10.37 44.91 9.88L42.82 9.88L42.82 9.2L45.61 9.2C45.65 9.35 45.66 9.49 45.66 9.63Z" fill="#FFFFFF" fill-opacity="1.000000" fill-rule="nonzero"/>
	<path id="path20" d="M44.94 11.51C44.4 12.06 43.69 12.34 42.82 12.34C41.98 12.34 41.27 12.06 40.69 11.5C40.11 10.93 39.82 10.23 39.82 9.4C39.82 8.56 40.11 7.86 40.69 7.3C41.27 6.73 41.98 6.45 42.82 6.45C43.23 6.45 43.62 6.53 44 6.69C44.38 6.84 44.68 7.06 44.9 7.32L44.4 7.81C44.01 7.37 43.49 7.15 42.82 7.15C42.21 7.15 41.68 7.35 41.24 7.77C40.79 8.19 40.57 8.73 40.57 9.4C40.57 10.06 40.79 10.61 41.24 11.03C41.68 11.44 42.21 11.65 42.82 11.65C43.46 11.65 44 11.44 44.43 11.02C44.71 10.75 44.87 10.37 44.91 9.88L42.82 9.88L42.82 9.2L45.61 9.2C45.65 9.35 45.66 9.49 45.66 9.63C45.66 10.41 45.42 11.04 44.94 11.51Z" stroke="#FFFFFF" stroke-opacity="1.000000" stroke-width="0.160000"/>
	<path id="path24" d="M50.09 7.27L47.47 7.27L47.47 9.06L49.84 9.06L49.84 9.74L47.47 9.74L47.47 11.52L50.09 11.52L50.09 12.22L46.72 12.22L46.72 6.58L50.09 6.58L50.09 7.27Z" fill="#FFFFFF" fill-opacity="1.000000" fill-rule="nonzero"/>
	<path id="path24" d="M47.47 7.27L47.47 9.06L49.84 9.06L49.84 9.74L47.47 9.74L47.47 11.52L50.09 11.52L50.09 12.22L46.72 12.22L46.72 6.58L50.09 6.58L50.09 7.27L47.47 7.27Z" stroke="#FFFFFF" stroke-opacity="1.000000" stroke-width="0.160000"/>
	<path id="path28" d="M53.23 12.22L52.48 12.22L52.48 7.27L50.87 7.27L50.87 6.58L54.84 6.58L54.84 7.27L53.23 7.27L53.23 12.22Z" fill="#FFFFFF" fill-opacity="1.000000" fill-rule="nonzero"/>
	<path id="path28" d="M52.48 12.22L52.48 7.27L50.87 7.27L50.87 6.58L54.84 6.58L54.84 7.27L53.23 7.27L53.23 12.22L52.48 12.22Z" stroke="#FFFFFF" stroke-opacity="1.000000" stroke-width="0.160000"/>
	<path id="path32" d="M57.71 12.22L57.71 6.58L58.45 6.58L58.45 12.22L57.71 12.22Z" fill="#FFFFFF" fill-opacity="1.000000" fill-rule="nonzero"/>
	<path id="path32" d="M57.71 6.58L58.45 6.58L58.45 12.22L57.71 12.22L57.71 6.58Z" stroke="#FFFFFF" stroke-opacity="1.000000" stroke-width="0.160000"/>
	<path id="path36" d="M61.75 12.22L61.01 12.22L61.01 7.27L59.39 7.27L59.39 6.58L63.36 6.58L63.36 7.27L61.75 7.27L61.75 12.22Z" fill="#FFFFFF" fill-opacity="1.000000" fill-rule="nonzero"/>
	<path id="path36" d="M61.01 12.22L61.01 7.27L59.39 7.27L59.39 6.58L63.36 6.58L63.36 7.27L61.75 7.27L61.75 12.22L61.01 12.22Z" stroke="#FFFFFF" stroke-opacity="1.000000" stroke-width="0.160000"/>
	<path id="path40" d="M70.88 11.49C70.31 12.06 69.6 12.34 68.76 12.34C67.92 12.34 67.21 12.06 66.64 11.49C66.07 10.92 65.79 10.22 65.79 9.4C65.79 8.57 66.07 7.87 66.64 7.3C67.21 6.73 67.92 6.45 68.76 6.45C69.6 6.45 70.3 6.73 70.87 7.31C71.45 7.88 71.73 8.58 71.73 9.4C71.73 10.22 71.45 10.92 70.88 11.49ZM67.19 11.02C67.62 11.44 68.14 11.65 68.76 11.65C69.38 11.65 69.9 11.44 70.33 11.02C70.75 10.6 70.97 10.05 70.97 9.4C70.97 8.74 70.75 8.2 70.33 7.78C69.9 7.35 69.38 7.14 68.76 7.14C68.14 7.14 67.62 7.35 67.19 7.78C66.76 8.2 66.55 8.74 66.55 9.4C66.55 10.05 66.76 10.6 67.19 11.02Z" fill="#FFFFFF" fill-opacity="1.000000" fill-rule="nonzero"/>
	<path id="path40" d="M68.76 12.34C67.92 12.34 67.21 12.06 66.64 11.49C66.07 10.92 65.79 10.22 65.79 9.4C65.79 8.57 66.07 7.87 66.64 7.3C67.21 6.73 67.92 6.45 68.76 6.45C69.6 6.45 70.3 6.73 70.87 7.31C71.45 7.88 71.73 8.58 71.73 9.4C71.73 10.22 71.45 10.92 70.88 11.49C70.31 12.06 69.6 12.34 68.76 12.34ZM68.76 11.65C69.38 11.65 69.9 11.44 70.33 11.02C70.75 10.6 70.97 10.05 70.97 9.4C70.97 8.74 70.75 8.2 70.33 7.78C69.9 7.35 69.38 7.14 68.76 7.14C68.14 7.14 67.62 7.35 67.19 7.78C66.76 8.2 66.55 8.74 66.55 9.4C66.55 10.05 66.76 10.6 67.19 11.02C67.62 11.44 68.14 11.65 68.76 11.65Z" stroke="#FFFFFF" stroke-opacity="1.000000" stroke-width="0.160000"/>
	<path id="path44" d="M72.77 12.22L72.77 6.58L73.68 6.58L76.48 10.96L76.51 10.96L76.48 9.88L76.48 6.58L77.23 6.58L77.23 12.22L76.45 12.22L73.51 7.62L73.48 7.62L73.51 8.7L73.51 12.22L72.77 12.22Z" fill="#FFFFFF" fill-opacity="1.000000" fill-rule="nonzero"/>
	<path id="path44" d="M72.77 6.58L73.68 6.58L76.48 10.96L76.51 10.96L76.48 9.88L76.48 6.58L77.23 6.58L77.23 12.22L76.45 12.22L73.51 7.62L73.48 7.62L73.51 8.7L73.51 12.22L72.77 12.22L72.77 6.58Z" stroke="#FFFFFF" stroke-opacity="1.000000" stroke-width="0.160000"/>
	<path id="path46" d="M65.61 20.45C63.34 20.45 61.5 22.13 61.5 24.45C61.5 26.75 63.34 28.44 65.61 28.44C67.87 28.44 69.72 26.75 69.72 24.45C69.72 22.13 67.87 20.45 65.61 20.45ZM65.61 26.87C64.37 26.87 63.3 25.87 63.3 24.45C63.3 23 64.37 22.02 65.61 22.02C66.85 22.02 67.92 23 67.92 24.45C67.92 25.87 66.85 26.87 65.61 26.87ZM56.64 20.45C54.37 20.45 52.53 22.13 52.53 24.45C52.53 26.75 54.37 28.44 56.64 28.44C58.91 28.44 60.75 26.75 60.75 24.45C60.75 22.13 58.91 20.45 56.64 20.45ZM56.64 26.87C55.4 26.87 54.33 25.87 54.33 24.45C54.33 23 55.4 22.02 56.64 22.02C57.88 22.02 58.95 23 58.95 24.45C58.95 25.87 57.88 26.87 56.64 26.87ZM45.97 21.67L45.97 23.37L50.13 23.37C50.01 24.32 49.68 25.02 49.18 25.51C48.58 26.09 47.63 26.75 45.97 26.75C43.41 26.75 41.41 24.73 41.41 22.23C41.41 19.74 43.41 17.72 45.97 17.72C47.35 17.72 48.36 18.25 49.1 18.93L50.33 17.73C49.29 16.77 47.91 16.02 45.97 16.02C42.46 16.02 39.52 18.81 39.52 22.23C39.52 25.66 42.46 28.44 45.97 28.44C47.87 28.44 49.29 27.84 50.41 26.7C51.56 25.58 51.91 24.01 51.91 22.73C51.91 22.34 51.88 21.98 51.82 21.67L45.97 21.67ZM89.6 22.99C89.26 22.1 88.22 20.45 86.09 20.45C83.99 20.45 82.23 22.07 82.23 24.45C82.23 26.69 83.97 28.44 86.29 28.44C88.18 28.44 89.26 27.32 89.71 26.67L88.31 25.76C87.85 26.43 87.21 26.87 86.29 26.87C85.38 26.87 84.73 26.46 84.31 25.66L89.79 23.44L89.6 22.99ZM84.01 24.32C83.97 22.78 85.24 21.99 86.15 21.99C86.87 21.99 87.48 22.34 87.68 22.84L84.01 24.32ZM79.56 28.2L81.36 28.2L81.36 16.45L79.56 16.45L79.56 28.2ZM76.61 21.34L76.55 21.34C76.15 20.87 75.38 20.45 74.4 20.45C72.35 20.45 70.47 22.2 70.47 24.46C70.47 26.7 72.35 28.44 74.4 28.44C75.38 28.44 76.15 28.02 76.55 27.54L76.61 27.54L76.61 28.11C76.61 29.64 75.78 30.46 74.43 30.46C73.33 30.46 72.64 29.68 72.36 29.03L70.8 29.67C71.25 30.73 72.44 32.03 74.43 32.03C76.54 32.03 78.32 30.82 78.32 27.87L78.32 20.69L76.61 20.69L76.61 21.34ZM74.55 26.87C73.31 26.87 72.27 25.85 72.27 24.46C72.27 23.05 73.31 22.02 74.55 22.02C75.78 22.02 76.74 23.05 76.74 24.46C76.74 25.85 75.78 26.87 74.55 26.87ZM98.03 16.45L93.72 16.45L93.72 28.2L95.52 28.2L95.52 23.75L98.03 23.75C100.03 23.75 101.98 22.34 101.98 20.1C101.98 17.86 100.02 16.45 98.03 16.45ZM98.08 22.11L95.52 22.11L95.52 18.08L98.08 18.08C99.42 18.08 100.18 19.17 100.18 20.1C100.18 21.01 99.42 22.11 98.08 22.11ZM109.18 20.42C107.88 20.42 106.53 20.98 105.98 22.22L107.57 22.88C107.91 22.22 108.55 22.01 109.21 22.01C110.14 22.01 111.09 22.56 111.1 23.52L111.1 23.65C110.78 23.46 110.08 23.19 109.23 23.19C107.51 23.19 105.76 24.11 105.76 25.84C105.76 27.41 107.17 28.42 108.75 28.42C109.96 28.42 110.62 27.89 111.04 27.27L111.1 27.27L111.1 28.18L112.84 28.18L112.84 23.67C112.84 21.59 111.24 20.42 109.18 20.42ZM108.96 26.86C108.38 26.86 107.56 26.58 107.56 25.87C107.56 24.96 108.58 24.61 109.46 24.61C110.25 24.61 110.62 24.78 111.1 25.01C110.96 26.09 110 26.86 108.96 26.86ZM119.16 20.68L117.09 25.78L117.03 25.78L114.9 20.68L112.96 20.68L116.17 27.8L114.34 31.76L116.21 31.76L121.16 20.68L119.16 20.68ZM102.97 28.2L104.77 28.2L104.77 16.45L102.97 16.45L102.97 28.2Z" fill="#FFFFFF" fill-opacity="1.000000" fill-rule="nonzero"/>
	<path id="path64" d="M10.04 7.08C9.76 7.37 9.6 7.82 9.6 8.4L9.6 29.2C9.6 29.78 9.76 30.23 10.04 30.52L10.11 30.58L22.05 18.94L22.05 18.66L10.11 7.01L10.04 7.08Z" fill="url(#paint_linear_96_2570_0)" fill-opacity="1.000000" fill-rule="nonzero"/>
	<path id="path78" d="M26.02 22.82L22.05 18.94L22.05 18.66L26.02 14.78L26.11 14.83L30.83 17.44C32.17 18.19 32.17 19.41 30.83 20.16L26.11 22.77L26.02 22.82Z" fill="url(#paint_linear_96_2572_0)" fill-opacity="1.000000" fill-rule="nonzero"/>
	<path id="path88" d="M26.11 22.77L22.05 18.8L10.04 30.52C10.49 30.98 11.22 31.03 12.05 30.57L26.11 22.77Z" fill="url(#paint_linear_96_2574_0)" fill-opacity="1.000000" fill-rule="nonzero"/>
	<path id="path104" d="M26.11 14.83L12.05 7.02C11.22 6.57 10.49 6.62 10.04 7.08L22.05 18.8L26.11 14.83Z" fill="url(#paint_linear_96_2576_0)" fill-opacity="1.000000" fill-rule="nonzero"/>
</svg>
