<svg width="130.000000" height="37.555664" viewBox="0 0 130 37.5557" fill="none" xmlns="http://www.w3.org/2000/svg" xmlns:xlink="http://www.w3.org/1999/xlink">
	<desc>
			Created with Pixso.
	</desc>
	<defs/>
	<path id="Vector" d="M129.27 33.22C129.27 35.22 127.62 36.84 125.57 36.84L4.42 36.84C2.38 36.84 0.72 35.22 0.72 33.22L0.72 4.33C0.72 2.33 2.38 0.7 4.42 0.7L125.57 0.7C127.62 0.7 129.27 2.33 129.27 4.33L129.27 33.22Z" fill="#000000" fill-opacity="1.000000" fill-rule="nonzero"/>
	<path id="path16" d="M125.18 0.75C127.41 0.75 129.22 2.52 129.22 4.69L129.22 32.86C129.22 35.03 127.41 36.8 125.18 36.8L4.81 36.8C2.58 36.8 0.77 35.03 0.77 32.86L0.77 4.69C0.77 2.52 2.58 0.75 4.81 0.75L125.18 0.75ZM125.18 0L4.81 0C2.16 0 0 2.11 0 4.69L0 32.86C0 35.44 2.16 37.55 4.81 37.55L125.18 37.55C127.83 37.55 130 35.44 130 32.86L130 4.69C130 2.11 127.83 0 125.18 0Z" fill="#A6A6A6" fill-opacity="1.000000" fill-rule="nonzero"/>
	<path id="Vector" d="M27.18 5.83C27.34 7.25 26.77 8.65 25.93 9.67C25.05 10.68 23.64 11.45 22.27 11.35C22.1 9.99 22.79 8.54 23.56 7.66C24.44 6.65 25.97 5.88 27.18 5.83ZM31.66 14.01C31.51 14.09 28.98 15.57 29.01 18.57C29.04 22.2 32.26 23.4 32.3 23.41C32.28 23.49 31.8 25.14 30.59 26.81C29.58 28.28 28.52 29.72 26.84 29.75C26.04 29.76 25.5 29.54 24.94 29.31C24.36 29.06 23.75 28.81 22.79 28.81C20.9 28.81 20.32 29.72 18.75 29.78C17.15 29.84 15.93 28.21 14.89 26.75C12.79 23.78 11.17 18.36 13.35 14.68C14.41 12.87 16.33 11.71 18.4 11.68C19.3 11.66 20.17 12 20.94 12.3C21.52 12.53 22.04 12.73 22.47 12.73C22.84 12.73 23.35 12.54 23.94 12.31C24.87 11.95 26 11.51 27.16 11.63C27.96 11.65 30.21 11.93 31.67 14L31.66 14.01Z" fill="#FFFFFF" fill-opacity="1.000000" fill-rule="evenodd"/>
	<path id="Vector" d="M51.65 29.57L49.47 29.57L48.27 25.9L44.1 25.9L42.96 29.57L40.83 29.57L44.96 17.08L47.51 17.08L51.65 29.57ZM47.91 24.36L46.82 21.1C46.71 20.77 46.49 19.98 46.18 18.75L46.14 18.75C46.01 19.28 45.81 20.06 45.53 21.1L44.47 24.36L47.91 24.36Z" fill="#FFFFFF" fill-opacity="1.000000" fill-rule="nonzero"/>
	<path id="Vector" d="M62.26 24.96C62.26 26.49 61.84 27.7 60.99 28.59C60.23 29.38 59.28 29.78 58.15 29.78C56.94 29.78 56.06 29.35 55.53 28.5L55.49 28.5L55.49 33.25L53.44 33.25L53.44 23.53C53.44 22.57 53.41 21.58 53.36 20.56L55.17 20.56L55.28 21.99L55.32 21.99C56.01 20.92 57.05 20.38 58.44 20.38C59.53 20.38 60.44 20.8 61.17 21.64C61.9 22.48 62.26 23.59 62.26 24.96ZM60.17 25.03C60.17 24.15 59.97 23.43 59.56 22.86C59.12 22.27 58.52 21.97 57.77 21.97C57.27 21.97 56.81 22.14 56.4 22.46C55.98 22.79 55.71 23.22 55.59 23.75C55.52 24 55.49 24.2 55.49 24.36L55.49 25.87C55.49 26.52 55.7 27.07 56.11 27.53C56.52 27.98 57.06 28.2 57.72 28.2C58.49 28.2 59.09 27.91 59.52 27.33C59.95 26.75 60.17 25.98 60.17 25.03Z" fill="#FFFFFF" fill-opacity="1.000000" fill-rule="nonzero"/>
	<path id="Vector" d="M72.89 24.96C72.89 26.49 72.47 27.7 71.62 28.59C70.86 29.38 69.91 29.78 68.78 29.78C67.57 29.78 66.69 29.35 66.16 28.5L66.12 28.5L66.12 33.25L64.07 33.25L64.07 23.53C64.07 22.57 64.04 21.58 63.99 20.56L65.8 20.56L65.91 21.99L65.95 21.99C66.64 20.92 67.67 20.38 69.07 20.38C70.16 20.38 71.07 20.8 71.8 21.64C72.53 22.48 72.89 23.59 72.89 24.96ZM70.8 25.03C70.8 24.15 70.6 23.43 70.19 22.86C69.75 22.27 69.15 21.97 68.4 21.97C67.9 21.97 67.44 22.14 67.02 22.46C66.61 22.79 66.34 23.22 66.22 23.75C66.15 24 66.12 24.2 66.12 24.36L66.12 25.87C66.12 26.52 66.33 27.07 66.74 27.53C67.15 27.98 67.69 28.2 68.35 28.2C69.12 28.2 69.72 27.91 70.15 27.33C70.58 26.75 70.8 25.98 70.8 25.03Z" fill="#FFFFFF" fill-opacity="1.000000" fill-rule="nonzero"/>
	<path id="Vector" d="M84.77 26.07C84.77 27.13 84.39 28 83.64 28.67C82.8 29.39 81.64 29.76 80.14 29.76C78.77 29.76 77.66 29.5 76.82 28.98L77.3 27.31C78.2 27.84 79.19 28.11 80.27 28.11C81.04 28.11 81.64 27.94 82.07 27.6C82.5 27.26 82.72 26.8 82.72 26.23C82.72 25.73 82.54 25.3 82.19 24.95C81.83 24.61 81.24 24.29 80.42 23.99C78.18 23.17 77.05 21.98 77.05 20.4C77.05 19.38 77.45 18.54 78.23 17.88C79.02 17.22 80.06 16.9 81.37 16.9C82.54 16.9 83.51 17.09 84.28 17.49L83.77 19.12C83.04 18.74 82.23 18.55 81.31 18.55C80.59 18.55 80.03 18.72 79.62 19.07C79.28 19.37 79.11 19.75 79.11 20.2C79.11 20.69 79.3 21.1 79.7 21.42C80.04 21.72 80.66 22.04 81.56 22.38C82.66 22.82 83.47 23.32 84 23.9C84.51 24.48 84.77 25.21 84.77 26.07Z" fill="#FFFFFF" fill-opacity="1.000000" fill-rule="nonzero"/>
	<path id="Vector" d="M91.56 22.07L89.3 22.07L89.3 26.44C89.3 27.55 89.7 28.11 90.5 28.11C90.86 28.11 91.17 28.08 91.41 28.02L91.46 29.54C91.06 29.68 90.53 29.76 89.87 29.76C89.06 29.76 88.42 29.52 87.97 29.04C87.51 28.55 87.28 27.74 87.28 26.61L87.28 22.06L85.93 22.06L85.93 20.56L87.28 20.56L87.28 18.91L89.3 18.32L89.3 20.56L91.56 20.56L91.56 22.07Z" fill="#FFFFFF" fill-opacity="1.000000" fill-rule="nonzero"/>
	<path id="Vector" d="M101.77 25C101.77 26.38 101.37 27.52 100.55 28.41C99.7 29.32 98.58 29.78 97.17 29.78C95.81 29.78 94.73 29.34 93.93 28.46C93.12 27.59 92.72 26.48 92.72 25.14C92.72 23.75 93.13 22.6 93.97 21.72C94.79 20.83 95.91 20.38 97.32 20.38C98.68 20.38 99.77 20.82 100.59 21.7C101.38 22.55 101.77 23.65 101.77 25ZM99.64 25.06C99.64 24.23 99.46 23.52 99.09 22.92C98.66 22.2 98.04 21.84 97.25 21.84C96.42 21.84 95.8 22.2 95.37 22.92C95 23.52 94.81 24.24 94.81 25.1C94.81 25.93 95 26.64 95.37 27.23C95.81 27.95 96.43 28.31 97.23 28.31C98.01 28.31 98.63 27.95 99.07 27.22C99.45 26.61 99.64 25.89 99.64 25.06Z" fill="#FFFFFF" fill-opacity="1.000000" fill-rule="nonzero"/>
	<path id="Vector" d="M108.45 22.32C108.24 22.29 108.03 22.27 107.8 22.27C107.08 22.27 106.52 22.54 106.12 23.07C105.78 23.54 105.61 24.13 105.61 24.85L105.61 29.57L103.56 29.57L103.58 23.4C103.58 22.36 103.55 21.42 103.5 20.57L105.29 20.57L105.36 22.29L105.42 22.29C105.64 21.7 105.98 21.22 106.45 20.86C106.91 20.54 107.4 20.38 107.93 20.38C108.12 20.38 108.29 20.39 108.45 20.42L108.45 22.32Z" fill="#FFFFFF" fill-opacity="1.000000" fill-rule="nonzero"/>
	<path id="Vector" d="M117.63 24.64C117.63 25 117.6 25.3 117.55 25.55L111.39 25.55C111.42 26.44 111.71 27.12 112.29 27.59C112.81 28.01 113.48 28.22 114.3 28.22C115.21 28.22 116.04 28.08 116.79 27.79L117.11 29.18C116.24 29.56 115.21 29.74 114.02 29.74C112.58 29.74 111.46 29.33 110.64 28.51C109.82 27.69 109.41 26.58 109.41 25.2C109.41 23.84 109.8 22.71 110.56 21.81C111.35 20.84 112.43 20.36 113.79 20.36C115.12 20.36 116.13 20.84 116.81 21.81C117.35 22.57 117.63 23.52 117.63 24.64ZM115.67 24.12C115.68 23.53 115.55 23.02 115.27 22.58C114.92 22.03 114.37 21.75 113.63 21.75C112.96 21.75 112.42 22.02 112 22.57C111.66 23 111.46 23.52 111.39 24.12L115.67 24.12L115.67 24.12Z" fill="#FFFFFF" fill-opacity="1.000000" fill-rule="nonzero"/>
	<path id="Vector" d="M47.23 9.39C47.23 10.5 46.89 11.33 46.21 11.89C45.58 12.4 44.69 12.66 43.53 12.66C42.96 12.66 42.46 12.64 42.05 12.59L42.05 6.55C42.59 6.47 43.17 6.42 43.79 6.42C44.89 6.42 45.73 6.66 46.29 7.12C46.91 7.65 47.23 8.41 47.23 9.39ZM46.16 9.42C46.16 8.7 45.97 8.15 45.58 7.77C45.19 7.39 44.62 7.2 43.88 7.2C43.56 7.2 43.29 7.22 43.06 7.26L43.06 11.85C43.19 11.87 43.41 11.88 43.74 11.88C44.52 11.88 45.11 11.67 45.53 11.25C45.95 10.83 46.16 10.22 46.16 9.42Z" fill="#FFFFFF" fill-opacity="1.000000" fill-rule="nonzero"/>
	<path id="Vector" d="M52.87 10.36C52.87 11.04 52.67 11.6 52.27 12.03C51.85 12.48 51.3 12.71 50.61 12.71C49.94 12.71 49.41 12.49 49.02 12.06C48.62 11.63 48.42 11.09 48.42 10.43C48.42 9.75 48.63 9.18 49.04 8.75C49.44 8.31 49.99 8.09 50.68 8.09C51.35 8.09 51.89 8.31 52.29 8.74C52.68 9.16 52.87 9.7 52.87 10.36ZM51.82 10.39C51.82 9.98 51.73 9.63 51.55 9.34C51.34 8.99 51.04 8.81 50.65 8.81C50.24 8.81 49.93 8.99 49.72 9.34C49.54 9.63 49.45 9.99 49.45 10.41C49.45 10.82 49.54 11.17 49.72 11.46C49.94 11.81 50.25 11.99 50.64 11.99C51.02 11.99 51.33 11.81 51.54 11.45C51.73 11.15 51.82 10.8 51.82 10.39Z" fill="#FFFFFF" fill-opacity="1.000000" fill-rule="nonzero"/>
	<path id="Vector" d="M60.44 8.18L59.02 12.61L58.09 12.61L57.5 10.69C57.35 10.21 57.23 9.73 57.14 9.26L57.12 9.26C57.03 9.74 56.91 10.22 56.75 10.69L56.13 12.61L55.19 12.61L53.86 8.18L54.9 8.18L55.41 10.29C55.53 10.78 55.64 11.26 55.72 11.71L55.74 11.71C55.81 11.34 55.93 10.86 56.11 10.29L56.75 8.18L57.58 8.18L58.19 10.25C58.34 10.75 58.46 11.24 58.56 11.71L58.59 11.71C58.65 11.25 58.76 10.77 58.89 10.25L59.44 8.18L60.44 8.18L60.44 8.18Z" fill="#FFFFFF" fill-opacity="1.000000" fill-rule="nonzero"/>
	<path id="Vector" d="M65.67 12.61L64.66 12.61L64.66 10.07C64.66 9.29 64.35 8.9 63.74 8.9C63.44 8.9 63.2 9.01 63.01 9.22C62.83 9.44 62.73 9.69 62.73 9.98L62.73 12.61L61.73 12.61L61.73 9.45C61.73 9.06 61.71 8.64 61.69 8.18L62.58 8.18L62.62 8.87L62.65 8.87C62.77 8.66 62.94 8.48 63.17 8.34C63.45 8.17 63.75 8.09 64.09 8.09C64.51 8.09 64.86 8.22 65.14 8.49C65.49 8.82 65.67 9.31 65.67 9.96L65.67 12.61Z" fill="#FFFFFF" fill-opacity="1.000000" fill-rule="nonzero"/>
	<path id="Vector" d="M68.45 12.61L67.44 12.61L67.44 6.15L68.45 6.15L68.45 12.61Z" fill="#FFFFFF" fill-opacity="1.000000" fill-rule="nonzero"/>
	<path id="Vector" d="M74.39 10.36C74.39 11.04 74.19 11.6 73.79 12.03C73.38 12.48 72.82 12.71 72.13 12.71C71.46 12.71 70.93 12.49 70.54 12.06C70.14 11.63 69.95 11.09 69.95 10.43C69.95 9.75 70.15 9.18 70.56 8.75C70.97 8.31 71.51 8.09 72.21 8.09C72.87 8.09 73.41 8.31 73.81 8.74C74.2 9.16 74.39 9.7 74.39 10.36ZM73.34 10.39C73.34 9.98 73.25 9.63 73.07 9.34C72.86 8.99 72.56 8.81 72.17 8.81C71.76 8.81 71.45 8.99 71.24 9.34C71.06 9.63 70.97 9.99 70.97 10.41C70.97 10.82 71.06 11.17 71.24 11.46C71.46 11.81 71.77 11.99 72.16 11.99C72.54 11.99 72.85 11.81 73.06 11.45C73.25 11.15 73.34 10.8 73.34 10.39Z" fill="#FFFFFF" fill-opacity="1.000000" fill-rule="nonzero"/>
	<path id="Vector" d="M79.28 12.61L78.37 12.61L78.29 12.1L78.27 12.1C77.96 12.5 77.51 12.71 76.94 12.71C76.51 12.71 76.17 12.57 75.9 12.31C75.67 12.06 75.55 11.76 75.55 11.41C75.55 10.86 75.78 10.45 76.25 10.17C76.71 9.88 77.36 9.74 78.2 9.75L78.2 9.67C78.2 9.08 77.89 8.79 77.26 8.79C76.81 8.79 76.42 8.9 76.08 9.12L75.87 8.47C76.29 8.22 76.81 8.09 77.43 8.09C78.62 8.09 79.21 8.7 79.21 9.92L79.21 11.55C79.21 11.99 79.23 12.35 79.28 12.61ZM78.23 11.09L78.23 10.4C77.12 10.38 76.56 10.68 76.56 11.3C76.56 11.53 76.62 11.7 76.75 11.81C76.88 11.93 77.05 11.99 77.25 11.99C77.47 11.99 77.67 11.92 77.86 11.78C78.05 11.65 78.17 11.47 78.21 11.26C78.22 11.21 78.23 11.15 78.23 11.09Z" fill="#FFFFFF" fill-opacity="1.000000" fill-rule="nonzero"/>
	<path id="Vector" d="M85.01 12.61L84.11 12.61L84.07 11.9L84.04 11.9C83.75 12.44 83.27 12.71 82.58 12.71C82.03 12.71 81.58 12.5 81.22 12.08C80.86 11.66 80.68 11.12 80.68 10.45C80.68 9.73 80.87 9.15 81.26 8.71C81.65 8.3 82.11 8.09 82.67 8.09C83.28 8.09 83.7 8.29 83.94 8.69L83.96 8.69L83.96 6.15L84.97 6.15L84.97 11.41C84.97 11.85 84.99 12.24 85.01 12.61ZM83.96 10.74L83.96 10C83.96 9.87 83.95 9.77 83.94 9.69C83.88 9.46 83.76 9.26 83.57 9.1C83.38 8.94 83.16 8.86 82.9 8.86C82.52 8.86 82.23 9 82.01 9.29C81.79 9.58 81.68 9.96 81.68 10.41C81.68 10.85 81.79 11.21 82 11.48C82.21 11.77 82.51 11.92 82.88 11.92C83.21 11.92 83.47 11.79 83.67 11.55C83.87 11.33 83.96 11.06 83.96 10.74Z" fill="#FFFFFF" fill-opacity="1.000000" fill-rule="nonzero"/>
	<path id="Vector" d="M93.64 10.36C93.64 11.04 93.44 11.6 93.04 12.03C92.63 12.48 92.07 12.71 91.38 12.71C90.71 12.71 90.18 12.49 89.79 12.06C89.39 11.63 89.2 11.09 89.2 10.43C89.2 9.75 89.4 9.18 89.81 8.75C90.22 8.31 90.76 8.09 91.46 8.09C92.12 8.09 92.66 8.31 93.06 8.74C93.45 9.16 93.64 9.7 93.64 10.36ZM92.6 10.39C92.6 9.98 92.5 9.63 92.32 9.34C92.11 8.99 91.81 8.81 91.42 8.81C91.01 8.81 90.71 8.99 90.49 9.34C90.31 9.63 90.22 9.99 90.22 10.41C90.22 10.82 90.31 11.17 90.49 11.46C90.71 11.81 91.02 11.99 91.41 11.99C91.79 11.99 92.1 11.81 92.32 11.45C92.5 11.15 92.6 10.8 92.6 10.39Z" fill="#FFFFFF" fill-opacity="1.000000" fill-rule="nonzero"/>
	<path id="Vector" d="M99.07 12.61L98.06 12.61L98.06 10.07C98.06 9.29 97.76 8.9 97.14 8.9C96.84 8.9 96.6 9.01 96.42 9.22C96.23 9.44 96.14 9.69 96.14 9.98L96.14 12.61L95.13 12.61L95.13 9.45C95.13 9.06 95.11 8.64 95.09 8.18L95.98 8.18L96.02 8.87L96.05 8.87C96.17 8.66 96.34 8.48 96.57 8.34C96.85 8.17 97.15 8.09 97.49 8.09C97.91 8.09 98.26 8.22 98.54 8.49C98.89 8.82 99.07 9.31 99.07 9.96L99.07 12.61Z" fill="#FFFFFF" fill-opacity="1.000000" fill-rule="nonzero"/>
	<path id="Vector" d="M105.86 8.92L104.75 8.92L104.75 11.07C104.75 11.61 104.95 11.89 105.34 11.89C105.52 11.89 105.67 11.87 105.79 11.84L105.81 12.59C105.61 12.66 105.35 12.7 105.03 12.7C104.63 12.7 104.32 12.58 104.1 12.34C103.87 12.11 103.76 11.71 103.76 11.15L103.76 8.92L103.1 8.92L103.1 8.18L103.76 8.18L103.76 7.37L104.75 7.08L104.75 8.18L105.86 8.18L105.86 8.92L105.86 8.92Z" fill="#FFFFFF" fill-opacity="1.000000" fill-rule="nonzero"/>
	<path id="Vector" d="M111.2 12.61L110.19 12.61L110.19 10.09C110.19 9.3 109.89 8.9 109.28 8.9C108.81 8.9 108.49 9.13 108.32 9.59C108.29 9.69 108.27 9.81 108.27 9.94L108.27 12.61L107.26 12.61L107.26 6.15L108.27 6.15L108.27 8.82L108.29 8.82C108.61 8.33 109.06 8.09 109.65 8.09C110.07 8.09 110.41 8.22 110.69 8.49C111.03 8.82 111.2 9.32 111.2 9.98L111.2 12.61Z" fill="#FFFFFF" fill-opacity="1.000000" fill-rule="nonzero"/>
	<path id="Vector" d="M116.71 10.18C116.71 10.36 116.7 10.51 116.68 10.63L113.65 10.63C113.66 11.07 113.81 11.4 114.09 11.63C114.34 11.84 114.67 11.94 115.08 11.94C115.53 11.94 115.93 11.87 116.3 11.73L116.46 12.42C116.03 12.6 115.52 12.69 114.94 12.69C114.23 12.69 113.68 12.49 113.28 12.08C112.88 11.68 112.68 11.14 112.68 10.46C112.68 9.79 112.86 9.24 113.24 8.79C113.63 8.32 114.16 8.08 114.83 8.08C115.48 8.08 115.97 8.32 116.31 8.79C116.58 9.17 116.71 9.63 116.71 10.18ZM115.75 9.93C115.76 9.64 115.69 9.39 115.56 9.17C115.38 8.9 115.11 8.76 114.75 8.76C114.42 8.76 114.15 8.9 113.95 9.16C113.78 9.38 113.68 9.63 113.65 9.93L115.75 9.93Z" fill="#FFFFFF" fill-opacity="1.000000" fill-rule="nonzero"/>
</svg>
