<svg width="40.000000" height="40.000000" viewBox="0 0 40 40" fill="none" xmlns="http://www.w3.org/2000/svg" xmlns:xlink="http://www.w3.org/1999/xlink">
	<desc>
			Created with Pixso.
	</desc>
	<defs/>
	<circle id="Ellipse" cx="20.000000" cy="20.000000" r="19.500000" stroke="#55ACE3" stroke-opacity="1.000000" stroke-width="1.000000"/>
	<path id="Vector" d="M30.6 14.89C29.89 15.2 29.1 15.39 28.29 15.5C29.1 15 29.79 14.2 30.1 13.3C29.29 13.8 28.5 14.1 27.5 14.3C26.79 13.5 25.7 13 24.6 13C22.39 13 20.6 14.8 20.6 17C20.6 17.29 20.6 17.6 20.7 17.89C17.39 17.7 14.39 16.1 12.39 13.7C12.1 14.3 11.89 15 11.89 15.7C11.89 17.1 12.6 18.29 13.7 19C13 19 12.39 18.79 11.89 18.5C11.89 20.39 13.29 22.1 15.1 22.39C14.79 22.5 14.39 22.5 14 22.5C13.7 22.5 13.5 22.5 13.2 22.39C13.7 24 15.2 25.2 17 25.2C15.6 26.3 13.89 26.89 12 26.89C11.7 26.89 11.39 26.89 11 26.8C12.79 27.89 14.89 28.6 17.2 28.6C24.6 28.6 28.6 22.5 28.6 17.2L28.6 16.7C29.39 16.39 30.1 15.7 30.6 14.89Z" fill="#55ACE3" fill-opacity="1.000000" fill-rule="nonzero"/>
</svg>
