<svg width="40.000000" height="40.000000" viewBox="0 0 40 40" fill="none" xmlns="http://www.w3.org/2000/svg" xmlns:xlink="http://www.w3.org/1999/xlink">
	<desc>
			Created with Pixso.
	</desc>
	<defs/>
	<circle id="Ellipse" cx="20.000000" cy="20.000000" r="19.500000" stroke="#363636" stroke-opacity="1.000000" stroke-width="1.000000"/>
	<path id="Vector" d="M28.71 18.91C28.71 18.52 28.64 18.07 28.64 17.55C28.58 17.03 28.51 16.52 28.45 16.06C28.32 15.55 28.13 15.16 27.74 14.84C27.42 14.51 26.96 14.32 26.51 14.25C25.02 14.06 22.83 14 19.85 14C16.88 14 14.62 14.06 13.19 14.25C12.74 14.32 12.29 14.51 11.96 14.84C11.64 15.16 11.38 15.55 11.25 16.06C11.12 16.52 11.06 16.97 11.06 17.55C11 18.07 11 18.52 11 18.91C11 19.3 11 19.75 11 20.39C11 21.04 11 21.56 11 21.88C11 22.27 11.06 22.72 11.06 23.24C11.12 23.76 11.19 24.27 11.25 24.73C11.38 25.24 11.58 25.63 11.96 25.95C12.29 26.28 12.74 26.47 13.19 26.54C14.68 26.73 16.88 26.8 19.85 26.8C22.83 26.8 25.09 26.73 26.51 26.54C26.96 26.47 27.42 26.28 27.74 25.95C28.06 25.63 28.32 25.24 28.45 24.73C28.58 24.27 28.64 23.82 28.64 23.24C28.71 22.72 28.71 22.27 28.71 21.88C28.71 21.49 28.71 21.04 28.71 20.39C28.71 19.75 28.71 19.23 28.71 18.91ZM23.28 20.91L18.17 24.08C18.11 24.14 17.98 24.21 17.85 24.21C17.72 24.21 17.65 24.21 17.52 24.14C17.33 24.02 17.2 23.82 17.2 23.56L17.2 17.16C17.2 16.9 17.33 16.71 17.52 16.58C17.72 16.45 17.98 16.45 18.17 16.58L23.28 19.75C23.47 19.88 23.6 20.07 23.6 20.27C23.6 20.46 23.47 20.78 23.28 20.91Z" fill="#FFFFFF" fill-opacity="1.000000" fill-rule="nonzero"/>
</svg>
